<?xml version="1.0" encoding="UTF-8"?> <svg xmlns="http://www.w3.org/2000/svg" width="31" height="30" viewBox="0 0 31 30" fill="none"><mask id="mask0_5954_76547" style="mask-type:luminance" maskUnits="userSpaceOnUse" x="0" y="0" width="31" height="30"><path d="M0.141113 15C0.141113 23.2843 6.85684 30 15.1411 30C23.4254 30 30.1411 23.2843 30.1411 15C30.1411 6.71573 23.4254 0 15.1411 0C6.85684 0 0.141113 6.71573 0.141113 15Z" fill="white"></path></mask><g mask="url(#mask0_5954_76547)"><path d="M0.141113 14.4C0.141113 7.61178 0.141113 4.21767 2.24995 2.10883C4.35878 0 7.75289 0 14.5411 0H15.7411C22.5293 0 25.9234 0 28.0323 2.10883C30.1411 4.21767 30.1411 7.61178 30.1411 14.4V15.6C30.1411 22.3882 30.1411 25.7823 28.0323 27.8912C25.9234 30 22.5293 30 15.7411 30H14.5411C7.75289 30 4.35878 30 2.24995 27.8912C0.141113 25.7823 0.141113 22.3882 0.141113 15.6V14.4Z" fill="#0077FF"></path><path d="M16.1037 21.6125C9.26615 21.6125 5.36618 16.925 5.20367 9.125H8.62868C8.74118 14.85 11.2661 17.275 13.2661 17.775V9.125H16.4912V14.0625C18.4662 13.85 20.541 11.6 21.241 9.125H24.4661C23.9286 12.175 21.6786 14.425 20.0786 15.35C21.6786 16.1 24.2412 18.0625 25.2162 21.6125H21.6661C20.9036 19.2375 19.0037 17.4 16.4912 17.15V21.6125H16.1037Z" fill="white"></path></g></svg> 