<?xml version="1.0" encoding="UTF-8"?> <svg xmlns="http://www.w3.org/2000/svg" width="31" height="30" viewBox="0 0 31 30" fill="none"><g clip-path="url(#clip0_5954_75603)"><path d="M15.1403 29.9984C23.4241 29.9984 30.1395 23.283 30.1395 14.9992C30.1395 6.71537 23.4241 0 15.1403 0C6.85648 0 0.141113 6.71537 0.141113 14.9992C0.141113 23.283 6.85648 29.9984 15.1403 29.9984Z" fill="#E70000"></path><path d="M22.9894 12.1047C22.9894 10.8473 21.9708 9.82812 20.7141 9.82812H10.0389C8.78248 9.82812 7.76404 10.8475 7.76404 12.1047V18.2093C7.76404 19.4666 8.78267 20.4858 10.0389 20.4858H20.7139C21.9708 20.4858 22.9892 19.4664 22.9892 18.2093V12.1047H22.9894ZM13.8537 17.7323V11.9986L18.2019 14.8655L13.8537 17.7323Z" fill="white"></path></g><defs><clipPath id="clip0_5954_75603"><rect width="29.9983" height="29.9983" fill="white" transform="translate(0.141113)"></rect></clipPath></defs></svg> 