<?xml version="1.0" encoding="UTF-8"?> <svg xmlns="http://www.w3.org/2000/svg" width="26" height="25" viewBox="0 0 26 25" fill="none"> <path d="M12.6626 0H12.6563C5.7085 0 0.0585938 5.60625 0.0585938 12.5C0.0585938 15.2344 0.946953 17.7687 2.45748 19.8266L0.887099 24.4703L5.73055 22.9344C7.72305 24.2438 10.0999 25 12.6626 25C19.6104 25 25.2603 19.3922 25.2603 12.5C25.2603 5.60781 19.6104 0 12.6626 0Z" fill="#00C800"></path> <path d="M19.994 17.5433C19.69 18.3948 18.4835 19.1011 17.5211 19.3073C16.8627 19.4464 16.0027 19.5573 13.1076 18.3667C9.40457 16.8448 7.01986 13.112 6.834 12.8698C6.65601 12.6276 5.33765 10.8933 5.33765 9.09951C5.33765 7.30576 6.25593 6.43232 6.62608 6.05732C6.93008 5.74951 7.43254 5.60889 7.91452 5.60889C8.07045 5.60889 8.21064 5.6167 8.33665 5.62295C8.7068 5.63857 8.89266 5.66045 9.1368 6.24014C9.44079 6.9667 10.1811 8.76045 10.2693 8.94482C10.3591 9.1292 10.4489 9.3792 10.3229 9.62139C10.2047 9.87139 10.1008 9.98232 9.9149 10.1948C9.72904 10.4073 9.55263 10.5698 9.36676 10.7979C9.19665 10.9964 9.00449 11.2089 9.2187 11.5761C9.43292 11.9354 10.1732 13.1339 11.2632 14.0964C12.6698 15.3386 13.8101 15.7354 14.2181 15.9042C14.5221 16.0292 14.8844 15.9995 15.1064 15.7651C15.3884 15.4636 15.7365 14.9636 16.0909 14.4714C16.3429 14.1183 16.6611 14.0745 16.995 14.1995C17.3352 14.3167 19.1356 15.1995 19.5057 15.3823C19.8759 15.5667 20.12 15.6542 20.2098 15.8089C20.298 15.9636 20.298 16.6901 19.994 17.5433Z" fill="#FAFAFA"></path> </svg> 